<mxfile host="app.diagrams.net" modified="2023-05-11T07:03:33.357Z" agent="Mozilla/5.0 (Windows NT 10.0; Win64; x64) AppleWebKit/537.36 (KHTML, like Gecko) Chrome/112.0.0.0 Safari/537.36" etag="zImzJ8c2r8whoLxJXU5N" version="21.2.9" type="github">
  <diagram name="class_diagram_양현지" id="839MMQC09DF56Wvykd-f">
    <mxGraphModel dx="882" dy="522" grid="1" gridSize="10" guides="1" tooltips="1" connect="1" arrows="1" fold="1" page="1" pageScale="1" pageWidth="827" pageHeight="1169" math="0" shadow="0">
      <root>
        <mxCell id="0" />
        <mxCell id="1" parent="0" />
        <mxCell id="0Nbfz5rH5VXtJ8NPMT_m-1" value="&amp;lt;&amp;lt;entity&amp;gt;&amp;gt;&lt;br&gt;&lt;b&gt;Member&lt;/b&gt;" style="swimlane;fontStyle=0;align=center;verticalAlign=top;childLayout=stackLayout;horizontal=1;startSize=40;horizontalStack=0;resizeParent=1;resizeParentMax=0;resizeLast=0;collapsible=0;marginBottom=0;html=1;whiteSpace=wrap;" vertex="1" parent="1">
          <mxGeometry x="500" y="970" width="160" height="48" as="geometry" />
        </mxCell>
        <mxCell id="0Nbfz5rH5VXtJ8NPMT_m-2" value="" style="line;strokeWidth=1;fillColor=none;align=left;verticalAlign=middle;spacingTop=-1;spacingLeft=3;spacingRight=3;rotatable=0;labelPosition=right;points=[];portConstraint=eastwest;" vertex="1" parent="0Nbfz5rH5VXtJ8NPMT_m-1">
          <mxGeometry y="40" width="160" height="8" as="geometry" />
        </mxCell>
        <mxCell id="0Nbfz5rH5VXtJ8NPMT_m-3" value="&amp;lt;&amp;lt;entity&amp;gt;&amp;gt;&lt;br&gt;&lt;b&gt;GenMember&lt;/b&gt;" style="swimlane;fontStyle=0;align=center;verticalAlign=top;childLayout=stackLayout;horizontal=1;startSize=40;horizontalStack=0;resizeParent=1;resizeParentMax=0;resizeLast=0;collapsible=0;marginBottom=0;html=1;whiteSpace=wrap;" vertex="1" parent="1">
          <mxGeometry x="390" y="1210" width="160" height="130" as="geometry" />
        </mxCell>
        <mxCell id="0Nbfz5rH5VXtJ8NPMT_m-4" value="" style="line;strokeWidth=1;fillColor=none;align=left;verticalAlign=middle;spacingTop=-1;spacingLeft=3;spacingRight=3;rotatable=0;labelPosition=right;points=[];portConstraint=eastwest;" vertex="1" parent="0Nbfz5rH5VXtJ8NPMT_m-3">
          <mxGeometry y="40" width="160" height="8" as="geometry" />
        </mxCell>
        <mxCell id="0Nbfz5rH5VXtJ8NPMT_m-5" value="showApplyInfo()&lt;br&gt;cancelApplyInfo()&lt;br&gt;deleteApplyInfo()&lt;br&gt;getMonthlyApplyCount()" style="text;html=1;strokeColor=none;fillColor=none;align=left;verticalAlign=middle;spacingLeft=4;spacingRight=4;overflow=hidden;rotatable=0;points=[[0,0.5],[1,0.5]];portConstraint=eastwest;whiteSpace=wrap;" vertex="1" parent="0Nbfz5rH5VXtJ8NPMT_m-3">
          <mxGeometry y="48" width="160" height="82" as="geometry" />
        </mxCell>
        <mxCell id="0Nbfz5rH5VXtJ8NPMT_m-6" value="&amp;lt;&amp;lt;entity&amp;gt;&amp;gt;&lt;br&gt;&lt;b&gt;CompMember&lt;/b&gt;" style="swimlane;fontStyle=0;align=center;verticalAlign=top;childLayout=stackLayout;horizontal=1;startSize=40;horizontalStack=0;resizeParent=1;resizeParentMax=0;resizeLast=0;collapsible=0;marginBottom=0;html=1;whiteSpace=wrap;" vertex="1" parent="1">
          <mxGeometry x="590" y="1210" width="160" height="100" as="geometry" />
        </mxCell>
        <mxCell id="0Nbfz5rH5VXtJ8NPMT_m-7" value="" style="line;strokeWidth=1;fillColor=none;align=left;verticalAlign=middle;spacingTop=-1;spacingLeft=3;spacingRight=3;rotatable=0;labelPosition=right;points=[];portConstraint=eastwest;" vertex="1" parent="0Nbfz5rH5VXtJ8NPMT_m-6">
          <mxGeometry y="40" width="160" height="8" as="geometry" />
        </mxCell>
        <mxCell id="0Nbfz5rH5VXtJ8NPMT_m-8" value="getRecruitDepartInfo()" style="text;html=1;strokeColor=none;fillColor=none;align=left;verticalAlign=middle;spacingLeft=4;spacingRight=4;overflow=hidden;rotatable=0;points=[[0,0.5],[1,0.5]];portConstraint=eastwest;whiteSpace=wrap;" vertex="1" parent="0Nbfz5rH5VXtJ8NPMT_m-6">
          <mxGeometry y="48" width="160" height="52" as="geometry" />
        </mxCell>
        <mxCell id="0Nbfz5rH5VXtJ8NPMT_m-9" value="" style="endArrow=block;endSize=16;endFill=0;html=1;rounded=0;exitX=0.5;exitY=0;exitDx=0;exitDy=0;entryX=0.372;entryY=0.976;entryDx=0;entryDy=0;entryPerimeter=0;" edge="1" parent="1" source="0Nbfz5rH5VXtJ8NPMT_m-3">
          <mxGeometry width="160" relative="1" as="geometry">
            <mxPoint x="550" y="1200" as="sourcePoint" />
            <mxPoint x="549.52" y="1028.5120000000002" as="targetPoint" />
          </mxGeometry>
        </mxCell>
        <mxCell id="0Nbfz5rH5VXtJ8NPMT_m-10" value="" style="endArrow=block;endSize=16;endFill=0;html=1;rounded=0;exitX=0.5;exitY=0;exitDx=0;exitDy=0;entryX=0.625;entryY=1;entryDx=0;entryDy=0;entryPerimeter=0;" edge="1" parent="1" source="0Nbfz5rH5VXtJ8NPMT_m-6">
          <mxGeometry width="160" relative="1" as="geometry">
            <mxPoint x="690" y="1070" as="sourcePoint" />
            <mxPoint x="590" y="1030" as="targetPoint" />
            <Array as="points" />
          </mxGeometry>
        </mxCell>
        <mxCell id="0Nbfz5rH5VXtJ8NPMT_m-11" value="&amp;lt;&amp;lt;entity&amp;gt;&amp;gt;&lt;br&gt;&lt;b&gt;RecruitInfo&lt;/b&gt;" style="swimlane;fontStyle=0;align=center;verticalAlign=top;childLayout=stackLayout;horizontal=1;startSize=40;horizontalStack=0;resizeParent=1;resizeParentMax=0;resizeLast=0;collapsible=0;marginBottom=0;html=1;whiteSpace=wrap;" vertex="1" parent="1">
          <mxGeometry x="580" y="1500" width="160" height="160" as="geometry" />
        </mxCell>
        <mxCell id="0Nbfz5rH5VXtJ8NPMT_m-12" value="companyName&lt;br&gt;departName&lt;br&gt;numOfApply&lt;br&gt;endDate" style="text;html=1;strokeColor=none;fillColor=none;align=left;verticalAlign=middle;spacingLeft=4;spacingRight=4;overflow=hidden;rotatable=0;points=[[0,0.5],[1,0.5]];portConstraint=eastwest;whiteSpace=wrap;" vertex="1" parent="0Nbfz5rH5VXtJ8NPMT_m-11">
          <mxGeometry y="40" width="160" height="60" as="geometry" />
        </mxCell>
        <mxCell id="0Nbfz5rH5VXtJ8NPMT_m-13" value="" style="line;strokeWidth=1;fillColor=none;align=left;verticalAlign=middle;spacingTop=-1;spacingLeft=3;spacingRight=3;rotatable=0;labelPosition=right;points=[];portConstraint=eastwest;" vertex="1" parent="0Nbfz5rH5VXtJ8NPMT_m-11">
          <mxGeometry y="100" width="160" height="8" as="geometry" />
        </mxCell>
        <mxCell id="0Nbfz5rH5VXtJ8NPMT_m-14" value="getRecruitCount()" style="text;html=1;strokeColor=none;fillColor=none;align=left;verticalAlign=middle;spacingLeft=4;spacingRight=4;overflow=hidden;rotatable=0;points=[[0,0.5],[1,0.5]];portConstraint=eastwest;whiteSpace=wrap;" vertex="1" parent="0Nbfz5rH5VXtJ8NPMT_m-11">
          <mxGeometry y="108" width="160" height="52" as="geometry" />
        </mxCell>
        <mxCell id="0Nbfz5rH5VXtJ8NPMT_m-15" value="&amp;lt;&amp;lt;entity&amp;gt;&amp;gt;&lt;br&gt;&lt;b&gt;ApplyInfo&lt;/b&gt;" style="swimlane;fontStyle=0;align=center;verticalAlign=top;childLayout=stackLayout;horizontal=1;startSize=40;horizontalStack=0;resizeParent=1;resizeParentMax=0;resizeLast=0;collapsible=0;marginBottom=0;html=1;whiteSpace=wrap;" vertex="1" parent="1">
          <mxGeometry x="380" y="1500" width="160" height="160" as="geometry" />
        </mxCell>
        <mxCell id="0Nbfz5rH5VXtJ8NPMT_m-16" value="companyName&lt;br&gt;departName&lt;br&gt;headCount&lt;br&gt;endDate" style="text;html=1;strokeColor=none;fillColor=none;align=left;verticalAlign=middle;spacingLeft=4;spacingRight=4;overflow=hidden;rotatable=0;points=[[0,0.5],[1,0.5]];portConstraint=eastwest;whiteSpace=wrap;" vertex="1" parent="0Nbfz5rH5VXtJ8NPMT_m-15">
          <mxGeometry y="40" width="160" height="60" as="geometry" />
        </mxCell>
        <mxCell id="0Nbfz5rH5VXtJ8NPMT_m-17" value="" style="line;strokeWidth=1;fillColor=none;align=left;verticalAlign=middle;spacingTop=-1;spacingLeft=3;spacingRight=3;rotatable=0;labelPosition=right;points=[];portConstraint=eastwest;" vertex="1" parent="0Nbfz5rH5VXtJ8NPMT_m-15">
          <mxGeometry y="100" width="160" height="8" as="geometry" />
        </mxCell>
        <mxCell id="0Nbfz5rH5VXtJ8NPMT_m-18" value="showInfo()&lt;br&gt;~ApplyInfo()&lt;br&gt;getDate()" style="text;html=1;strokeColor=none;fillColor=none;align=left;verticalAlign=middle;spacingLeft=4;spacingRight=4;overflow=hidden;rotatable=0;points=[[0,0.5],[1,0.5]];portConstraint=eastwest;whiteSpace=wrap;" vertex="1" parent="0Nbfz5rH5VXtJ8NPMT_m-15">
          <mxGeometry y="108" width="160" height="52" as="geometry" />
        </mxCell>
        <mxCell id="0Nbfz5rH5VXtJ8NPMT_m-19" value="1&lt;br&gt;&lt;br&gt;&lt;br&gt;&lt;br&gt;&lt;br&gt;&amp;nbsp;&lt;br&gt;&amp;nbsp;0..*" style="endArrow=diamondThin;endFill=0;endSize=24;html=1;rounded=0;entryX=0.426;entryY=1.052;entryDx=0;entryDy=0;entryPerimeter=0;exitX=0.5;exitY=0;exitDx=0;exitDy=0;" edge="1" parent="1" source="0Nbfz5rH5VXtJ8NPMT_m-11" target="0Nbfz5rH5VXtJ8NPMT_m-8">
          <mxGeometry x="-0.153" y="-21" width="160" relative="1" as="geometry">
            <mxPoint x="870" y="1231" as="sourcePoint" />
            <mxPoint x="630" y="1590" as="targetPoint" />
            <mxPoint as="offset" />
          </mxGeometry>
        </mxCell>
        <mxCell id="0Nbfz5rH5VXtJ8NPMT_m-20" value="&lt;span style=&quot;font-size: 15px;&quot;&gt;1&lt;br&gt;&lt;br&gt;&lt;br&gt;&lt;br&gt;0..*&lt;br&gt;&lt;/span&gt;" style="endArrow=diamondThin;endFill=0;endSize=24;html=1;rounded=0;entryX=0.5;entryY=1;entryDx=0;entryDy=0;entryPerimeter=0;exitX=0.563;exitY=0;exitDx=0;exitDy=0;exitPerimeter=0;" edge="1" parent="1" source="0Nbfz5rH5VXtJ8NPMT_m-15" target="0Nbfz5rH5VXtJ8NPMT_m-5">
          <mxGeometry x="0.0003" y="20" width="160" relative="1" as="geometry">
            <mxPoint x="460" y="1500" as="sourcePoint" />
            <mxPoint x="390" y="1237.63" as="targetPoint" />
            <mxPoint as="offset" />
          </mxGeometry>
        </mxCell>
        <mxCell id="0Nbfz5rH5VXtJ8NPMT_m-21" value="" style="ellipse;whiteSpace=wrap;html=1;" vertex="1" parent="1">
          <mxGeometry x="530" y="1040" width="80" height="80" as="geometry" />
        </mxCell>
      </root>
    </mxGraphModel>
  </diagram>
</mxfile>
